<svg id="Layer_1" enable-background="new 0 0 512 512" height="512" viewBox="0 0 512 512" width="512" xmlns="http://www.w3.org/2000/svg"><path d="m496 479.002h-19.896v-248.002c0-8.836-7.163-16-16-16s-16 7.164-16 16v248.002h-50.992v-176.002c0-8.836-7.163-16-16-16s-16 7.164-16 16v176.002h-79.795v-193.849c0-8.836-7.163-16-16-16s-16 7.164-16 16v193.849h-40.694v-229.444c0-8.836-7.163-16-16-16s-16 7.164-16 16v229.444h-28.129v-176.002c0-8.836-7.163-16-16-16s-16 7.164-16 16v176.002h-56.826v-229.444c0-8.836-7.163-16-16-16s-16 7.164-16 16v229.444h-11.668c-8.837 0-16 7.164-16 16s7.163 16 16 16h480c8.837 0 16-7.164 16-16s-7.163-16-16-16z" fill="#9f7766"/><g fill="#845f52"><path d="m132.494 287c-8.837 0-16 7.164-16 16v47.562c8.043-5.217 3.64-3.72 21.871 4.38 3.572 1.587 6.943 2.87 10.129 3.875v-55.817c0-8.836-7.163-16-16-16z"/><path d="m43.668 233.558c-8.837 0-16 7.164-16 16v60.442c18.332-10-.668-10.846 24.332 11.077 2.714 2.38 5.255 4.771 7.668 7.133v-78.652c0-8.837-7.163-16-16-16z"/><path d="m460.105 215c-8.837 0-16 7.164-16 16v85c12.135-1.669 22.797-12.978 32-29.229v-55.771c0-8.836-7.164-16-16-16z"/><path d="m377.112 287c-8.837 0-16 7.164-16 16v37.614c15.265 6.814 25.069 11.443 32 13.609v-51.223c0-8.836-7.163-16-16-16z"/><path d="m265.317 269.153c-8.837 0-16 7.164-16 16v115.686c11.205-3.789 18.758 3.14 32-3.944v-111.742c0-8.836-7.163-16-16-16z"/><path d="m192.623 233.558c-8.837 0-16 7.164-16 16v110.371c3.416-1.169 6.455-2.868 9.176-4.987 7.553-5.88 10.059 28.766 22.824 48.373v-153.757c0-8.837-7.163-16-16-16z"/></g><path d="m511.049 249.128h-114.551l37.111-231.933c3.668-22.926 36.661-22.926 40.33 0z" fill="#91c656"/><path d="m252.829 125.204c1.359-34.692-26.39-63.071-60.605-63.071-34.352 0-62.084 28.571-60.599 63.296-24.87 7.575-42.968 30.688-42.968 58.035 0 54.116 66.065 81.108 103.966 42.474 37.898 38.631 103.966 11.65 103.966-42.474 0-27.635-18.485-50.938-43.76-58.26z" fill="#91c656"/><path d="m404.739 112.767c1.359-34.692-26.39-63.071-60.605-63.071-34.352 0-62.084 28.571-60.599 63.296-24.87 7.575-42.968 30.688-42.968 58.035 0 54.116 66.065 81.108 103.966 42.474 37.898 38.631 103.966 11.65 103.966-42.474.001-27.635-18.485-50.938-43.76-58.26z" fill="#91c656"/><path d="m324.12 375.663h-116.363l37.698-235.603c3.726-23.289 37.241-23.289 40.968 0z" fill="#9bd65e"/><path d="m114.876 249.128h-114.552l37.111-231.933c3.668-22.926 36.661-22.926 40.33 0z" fill="#91c656"/><path d="m190.548 223.386c1.116-28.497-21.678-51.809-49.783-51.809-28.218 0-50.998 23.469-49.779 51.994-20.429 6.222-35.296 25.209-35.296 47.673 0 44.453 54.269 66.626 85.402 34.889 31.131 31.733 85.402 9.57 85.402-34.889.001-22.701-15.184-41.843-35.946-47.858z" fill="#9bd65e"/><path d="m420.363 223.386c1.116-28.497-21.678-51.809-49.783-51.809-28.219 0-50.998 23.469-49.779 51.994-20.429 6.222-35.296 25.209-35.296 47.673 0 44.453 54.269 66.626 85.402 34.889 31.131 31.733 85.402 9.57 85.402-34.889.001-22.701-15.184-41.843-35.946-47.858z" fill="#9bd65e"/><path d="m76.919 433.699c-8.016-35.012-39.336-61.14-76.779-61.14l-.14 138.376 153.433 1.065c-6.414-40.576-37.09-73.974-76.514-78.301z" fill="#9bd65e"/><path d="m512 510.935-.141-138.376c-20.314 0-38.816 7.702-52.782 20.33-34.02-40.485-100.51-16.495-100.51 36.59 0 15.879 6.508 30.233 16.995 40.557-8.602 12.149-14.556 26.534-16.995 41.963z" fill="#9bd65e"/><path d="m77.765 17.195c-3.668-22.927-36.661-22.927-40.33 0l-37.11 231.933c1.508 0 29.646-44.179 57.276-99.439 12.386-24.772 23.29-42.418 32.572-54.951z" fill="#9bd65e"/><path d="m77.765 17.195c-3.668-22.927-36.661-22.927-40.33 0l-4.451 27.82c11.498-10.674 7.246-18.143 22.707.852 10.573 12.99 21.523 21.268 30.758 25.602z" fill="#aced70"/><path d="m251.151 108.381c-6.473-26.541-30.392-46.247-58.927-46.247-34.356 0-62.081 28.571-60.599 63.296-14.24 4.337-26.251 13.774-33.924 26.177 3.291 8.28 14.368 11.802 43.393-1.917 66.196-31.289 21.62-92.445 66.664-42.667 16.014 17.698 31.188 13.908 43.393 1.358z" fill="#9bd65e"/><path d="m404.739 112.767c1.358-34.697-26.392-63.071-60.605-63.071-34.288 0-62.083 28.504-60.599 63.296-6.162 1.877-11.907 4.71-17.065 8.323 6.44 5.947 16.074 11.152 30.119 14.863 69.989 18.489 74.363 19.149 99.909 22.73 10.775 1.51 21.99-14.441 31.24-33.554-6.571-5.742-14.39-10.093-22.999-12.587z" fill="#9bd65e"/><path d="m507.311 225.763-33.372-208.568c-3.668-22.927-36.661-22.927-40.33 0l-20.71 129.434c1.109.786 2.249 1.57 3.457 2.349 34.136 22.009 52.952 85.435 68.723 100.15h11.912c3.385-3.776 6.779-11.221 10.32-23.365z" fill="#9bd65e"/><path d="m473.939 17.195c-3.668-22.927-36.661-22.927-40.33 0l-12.06 75.373c6.768 13.239 14.745 20.602 23.251 11.784 12.44-12.895 25.445-33.086 35.14-49.652z" fill="#aced70"/><path d="m293.778 76.524c1.47 5.217 7.437 8.337 22.311 5.61 42.667-7.822 34.133 28.444 61.156 16.355 7.861-3.517 13.372-11.913 17.17-22.081-24.125-35.653-76.595-35.591-100.637.116z" fill="#aced70"/><path d="m153.433 211.077c13.416-4.243 24.02-7.883 32.366-11.017-7.997-16.838-25.153-28.483-45.034-28.483-28.216 0-51.001 23.471-49.778 51.993-.103 32.43 34.314-3.596 62.446-12.493z" fill="#aced70"/><path d="m167.467 287.097c-46.154 49.263-3.555-18.653-46.933-7.986-25.426 6.253-47.908 7.917-62.171 8.225 12.006 35.191 56.86 45.168 82.731 18.797 31.132 31.734 85.402 9.567 85.402-34.89 0-10.397-3.192-20.042-8.64-28.027-14.009 9.324-31.451 23.667-50.389 43.881z" fill="#91c656"/><path d="m286.422 140.06c-3.727-23.289-37.241-23.289-40.968 0l-24.134 150.836c8.542 40.684 10.173-25.765 52.814-77.919 7.822-9.567 14.417-17.768 19.987-24.806z" fill="#aced70"/><path d="m286.422 140.06c-3.727-23.289-37.241-23.289-40.968 0l-2.081 13.003c26.593-.753 28.267-3.807 38.582 5.845 1.47 1.375 4.172 1.731 7.689 1.291z" fill="#c0f28b"/><path d="m280.533 340.267c-10.348 1.089-51.564 19.281-71.573 27.871l-1.204 7.526h116.364c-6.048-37.8-5.998-36.861-5.898-36.861-7.822-7.867-24.177.041-37.689 1.464z" fill="#91c656"/><path d="m496 511.002h-480c-8.837 0-16-7.164-16-16s7.163-16 16-16h480c8.837 0 16 7.164 16 16s-7.163 16-16 16z" fill="#91c656"/><path d="m318.762 224.244c-19.371 6.832-33.257 25.291-33.257 47 0 44.453 54.268 66.626 85.402 34.89 23.014 23.46 62.388 18.748 78.906-10.298-19.902-13.475-85.751-6.129-131.051-71.592z" fill="#91c656"/><path d="m338.884 182.955c2.955 5.759 11.918 11.485 32.023 15.801 23.258 4.992 37.658 6.218 46.579 5.81-11.642-32.415-52.043-43.526-78.602-21.611z" fill="#aced70"/><path d="m16 416.356c19.911 44.089 19.877.711 43.716 39.111s52.995 34.844 64.372 9.244c.967-2.174 1.291-4.82 1.1-7.824-13.068-12.654-29.696-21.149-48.27-23.187-8.016-35.012-39.336-61.14-76.779-61.14l-.02 20.201c4.098 2.357 9.286 8.991 15.881 23.595z" fill="#aced70"/><path d="m8.178 489.6c-2.939-1.519-5.65-2.889-8.152-4.124l-.026 25.46 153.433 1.064c-1.999-12.647-6.357-24.597-12.601-35.186-3.539 1.761-6.824 4.142-9.632 7.323-17.778 20.136-59.733 38.174-123.022 5.463z" fill="#91c656"/><path d="m511.859 372.56c-20.315 0-38.816 7.702-52.782 20.33-10.441-12.426-26.09-20.33-43.59-20.33-50.977 0-75.951 62.008-39.926 97.477 25.438-19.537 12.939 11.835 27.283 6.777 48.355-17.053-12.8-41.258-6.346-70.414s24.835 5.689 57.276 32 2.404-19.911 47.915-38.4c4.048-1.644 7.408-3.349 10.193-5.089z" fill="#aced70"/><path d="m467.556 476.814c-3.976 15.237-14.106 26.424-26.182 34.612l70.627-.49-.071-69.495c-18.616 2.84-38.199 11.707-44.374 35.373z" fill="#91c656"/></svg>